<svg id="visual" viewBox="0 0 900 600" width="900" height="600" xmlns="http://www.w3.org/2000/svg" xmlns:xlink="http://www.w3.org/1999/xlink" version="1.1"><rect x="0" y="0" width="900" height="600" fill="#001220"></rect><path d="M0 431L21.5 430.3C43 429.7 86 428.3 128.8 419.8C171.7 411.3 214.3 395.7 257.2 397.3C300 399 343 418 385.8 418.5C428.7 419 471.3 401 514.2 392.7C557 384.3 600 385.7 642.8 396.3C685.7 407 728.3 427 771.2 425.2C814 423.3 857 399.7 878.5 387.8L900 376L900 601L878.5 601C857 601 814 601 771.2 601C728.3 601 685.7 601 642.8 601C600 601 557 601 514.2 601C471.3 601 428.7 601 385.8 601C343 601 300 601 257.2 601C214.3 601 171.7 601 128.8 601C86 601 43 601 21.5 601L0 601Z" fill="#fa7268"></path><path d="M0 425L21.5 428.2C43 431.3 86 437.7 128.8 436.5C171.7 435.3 214.3 426.7 257.2 428.3C300 430 343 442 385.8 450C428.7 458 471.3 462 514.2 454.7C557 447.3 600 428.7 642.8 426.7C685.7 424.7 728.3 439.3 771.2 438C814 436.7 857 419.3 878.5 410.7L900 402L900 601L878.5 601C857 601 814 601 771.2 601C728.3 601 685.7 601 642.8 601C600 601 557 601 514.2 601C471.3 601 428.7 601 385.8 601C343 601 300 601 257.2 601C214.3 601 171.7 601 128.8 601C86 601 43 601 21.5 601L0 601Z" fill="#ef5f67"></path><path d="M0 502L21.5 502.8C43 503.7 86 505.3 128.8 501C171.7 496.7 214.3 486.3 257.2 484.5C300 482.7 343 489.3 385.8 490C428.7 490.7 471.3 485.3 514.2 483.2C557 481 600 482 642.8 483.5C685.7 485 728.3 487 771.2 489.3C814 491.7 857 494.3 878.5 495.7L900 497L900 601L878.5 601C857 601 814 601 771.2 601C728.3 601 685.7 601 642.8 601C600 601 557 601 514.2 601C471.3 601 428.7 601 385.8 601C343 601 300 601 257.2 601C214.3 601 171.7 601 128.8 601C86 601 43 601 21.5 601L0 601Z" fill="#e34c67"></path><path d="M0 500L21.5 505.5C43 511 86 522 128.8 521.5C171.7 521 214.3 509 257.2 504.5C300 500 343 503 385.8 504C428.7 505 471.3 504 514.2 502.3C557 500.7 600 498.3 642.8 504.2C685.7 510 728.3 524 771.2 526.7C814 529.3 857 520.7 878.5 516.3L900 512L900 601L878.5 601C857 601 814 601 771.2 601C728.3 601 685.7 601 642.8 601C600 601 557 601 514.2 601C471.3 601 428.7 601 385.8 601C343 601 300 601 257.2 601C214.3 601 171.7 601 128.8 601C86 601 43 601 21.5 601L0 601Z" fill="#d53867"></path><path d="M0 536L21.5 538C43 540 86 544 128.8 546.7C171.7 549.3 214.3 550.7 257.2 554.2C300 557.7 343 563.3 385.8 566C428.7 568.7 471.3 568.3 514.2 561C557 553.7 600 539.3 642.8 539.3C685.7 539.3 728.3 553.7 771.2 557.2C814 560.7 857 553.3 878.5 549.7L900 546L900 601L878.5 601C857 601 814 601 771.2 601C728.3 601 685.7 601 642.8 601C600 601 557 601 514.2 601C471.3 601 428.7 601 385.8 601C343 601 300 601 257.2 601C214.3 601 171.7 601 128.8 601C86 601 43 601 21.5 601L0 601Z" fill="#c62368"></path></svg>